<svg width="26" height="26" viewBox="0 0 26 26" fill="none" xmlns="http://www.w3.org/2000/svg">
<path d="M20.28 15.99C20.6591 15.0692 20.865 14.0833 20.865 13C20.865 12.22 20.7458 11.4725 20.54 10.7792C19.8358 10.9417 19.0991 11.0283 18.33 11.0283C16.7548 11.03 15.2022 10.653 13.8033 9.92898C12.4043 9.20499 11.1999 8.15528 10.2916 6.86833C9.31998 9.21935 7.48701 11.1104 5.16746 12.155C5.12413 12.4258 5.12413 12.7183 5.12413 13C5.12413 14.0343 5.32784 15.0584 5.72364 16.0139C6.11944 16.9695 6.69956 17.8377 7.4309 18.569C8.90791 20.0461 10.9112 20.8758 13 20.8758C14.1375 20.8758 15.2316 20.6267 16.2175 20.1825C16.835 21.3633 17.1166 21.9483 17.095 21.9483C15.3183 22.5442 13.9425 22.8367 13 22.8367C10.3783 22.8367 7.87579 21.8075 6.03413 19.955C4.91396 18.8383 4.08128 17.4666 3.60746 15.9575H2.16663V11.0283H3.34746C3.70522 9.28688 4.52774 7.67477 5.72775 6.36305C6.92775 5.05133 8.46048 4.08893 10.1633 3.57798C11.8661 3.06703 13.6755 3.02658 15.3994 3.46093C17.1233 3.89527 18.6975 4.78821 19.955 6.04499C21.3202 7.40485 22.2514 9.1391 22.6308 11.0283H23.8333V15.9575H23.7683L19.9116 19.5L14.17 18.85V17.0408H19.4025L20.28 15.99ZM10.0425 12.7508C10.3675 12.7508 10.6816 12.8808 10.9091 13.1192C11.1378 13.3497 11.266 13.6612 11.266 13.9858C11.266 14.3105 11.1378 14.622 10.9091 14.8525C10.6816 15.08 10.3675 15.21 10.0425 15.21C9.35996 15.21 8.80746 14.6683 8.80746 13.9858C8.80746 13.3033 9.35996 12.7508 10.0425 12.7508ZM15.9466 12.7508C16.6291 12.7508 17.1708 13.3033 17.1708 13.9858C17.1708 14.6683 16.6291 15.21 15.9466 15.21C15.2641 15.21 14.7116 14.6683 14.7116 13.9858C14.7116 13.6583 14.8417 13.3442 15.0733 13.1125C15.305 12.8809 15.6191 12.7508 15.9466 12.7508Z" fill="white"/>
</svg>
